<svg xmlns="http://www.w3.org/2000/svg" viewBox="0 0 72 72"><path fill="#fd0" d="M0 0h72v72H0z"/><path d="M36.87 34.63c-1.3.55-2.76 1.18-4.66 1.18-.8 0-1.6-.1-2.36-.32l1.32 13.5a2.26 2.26 0 002.25 2.07s1.86.1 2.48.1c.67 0 2.68-.1 2.68-.1A2.26 2.26 0 0040.83 49l1.41-14.92a6 6 0 00-1.98-.36c-1.24 0-2.24.43-3.4.92z" fill="#fff"/><path d="M48.32 27.62l-.2-1c-.17-.9-.58-1.74-1.5-2.06-.3-.1-.63-.15-.85-.37-.23-.21-.3-.55-.35-.85l-.28-1.7c-.09-.5-.16-1.04-.38-1.49-.3-.6-.9-.95-1.5-1.18a8.6 8.6 0 00-.93-.29c-1.5-.4-3.08-.54-4.62-.62-1.85-.1-3.7-.07-5.55.1a16.5 16.5 0 00-4.12.74 3.5 3.5 0 00-1.33.75 1.44 1.44 0 00-.27 1.72c.23.4.62.69 1.04.87.54.24 1.1.43 1.68.55 1.62.36 3.29.5 4.93.56a37.55 37.55 0 006.82-.36c.53-.08.87-.77.71-1.25-.18-.57-.68-.8-1.25-.71l-.25.04h-.06a34.76 34.76 0 01-7.07.19 33.44 33.44 0 01-1.73-.16l-.17-.03h-.04l-.18-.03c-.36-.05-.72-.11-1.08-.19a.16.16 0 010-.32 17.62 17.62 0 011.26-.22c.2-.01.4-.05.6-.07a37.6 37.6 0 018.16.03l.2.03.14.02c.4.06.8.13 1.2.22.58.13 1.34.17 1.6.81.08.2.12.43.17.65l.06.27v.02l.42 1.93a.36.36 0 01-.3.43l-.1.01-.07.01a47 47 0 01-2.38.25 55.1 55.1 0 01-11.79-.26l-.19-.03-.43-.06c-.49-.07-.97-.16-1.46-.24a2.54 2.54 0 00-1.68.24c-.44.24-.8.6-1.02 1.05-.23.47-.3 1-.4 1.5-.1.51-.26 1.06-.2 1.58a2.53 2.53 0 002.06 2.26 59.52 59.52 0 0017.01.56.73.73 0 01.8.8l-.1 1.04-.66 6.34-.68 6.65-.2 1.87c-.06.62-.06 1.25-.18 1.86-.18.95-.83 1.54-1.77 1.75-.87.2-1.75.3-2.64.31-.98 0-1.96-.04-2.95-.03-1.04 0-2.33-.1-3.14-.87-.71-.69-.8-1.76-.9-2.69l-.39-3.69-.71-6.83-.46-4.42-.03-.22c-.05-.53-.42-1.04-1.01-1.02-.5.02-1.08.45-1.02 1.02l.34 3.28.7 6.78.61 5.78.12 1.1c.22 2.02 1.76 3.1 3.66 3.41 1.12.18 2.26.22 3.39.24 1.45.02 2.91.08 4.34-.18 2.11-.4 3.7-1.8 3.92-3.99l.2-1.9c.2-2.09.42-4.17.64-6.26l.7-6.83.32-3.13a.73.73 0 01.58-.64c.6-.12 1.19-.32 1.61-.78.69-.73.82-1.69.58-2.65zm-22.72.68l-.01.1.01-.1zm.06.45l.04.04-.04-.04zm.06.08c.02.03.03.05 0 0zm.12.09v0zm20.27-.14c-.22.2-.55.3-.87.35-3.62.54-7.3.81-10.96.69a73.8 73.8 0 01-7.81-.75c-.26-.03-.53-.08-.7-.27-.33-.35-.17-1.06-.09-1.49.08-.4.23-.91.7-.97.72-.08 1.57.22 2.29.33a50.31 50.31 0 0015.83-.2c.6-.11 1.26-.31 1.62.3.24.42.28.99.24 1.46-.01.21-.1.4-.25.55z" fill="#0d0c22"/></svg>