<svg version="1.1" id="Layer_1" xmlns="http://www.w3.org/2000/svg" x="0" y="0" viewBox="0 0 72 72" xml:space="preserve"><style>.st1{fill:#fff}</style><linearGradient id="SVGID_1_" gradientUnits="userSpaceOnUse" x1="0" y1="0" x2="72" y2="72"><stop offset="0" stop-color="#f511a3"/><stop offset="1" stop-color="#9424f4"/></linearGradient><path fill="url(#SVGID_1_)" d="M0 0h72v72H0z"/><path class="st1" d="M48.42 22.13a4.13 4.13 0 11-8.27 0 4.13 4.13 0 018.27 0zM48.4 32.06a4.13 4.13 0 00-8.27 0v9.55a4.13 4.13 0 01-8.26 0v-.05c0-3.33-.05-7.22-.05-9.5a4.13 4.13 0 00-8.26 0v9.5a12.44 12.44 0 1024.88 0c0-3.33-.05-7.22-.05-9.5zM31.85 22.13a4.13 4.13 0 11-8.27 0 4.13 4.13 0 018.27 0z"/></svg>